<svg id="Mark_s_List" data-name="Mark&apos;s List" xmlns="http://www.w3.org/2000/svg" viewBox="0 0 100 100"><defs><style>.cls-1{fill:#e8782b;}.cls-2{fill:#c62037;}.cls-3{fill:#5b869a;}.cls-4{fill:#5c6691;}.cls-5{fill:#eb9025;}.cls-6{fill:#1f467e;}.cls-7{fill:#7298a4;}</style></defs><title>SVG Icon</title><g id="Tableau_Desktop" data-name="Tableau Desktop"><polygon class="cls-1" points="66.5 47.1 52.7 47.1 52.7 32.2 47.3 32.2 47.3 47.1 33.6 47.1 33.6 52.4 47.3 52.4 47.3 67.4 52.7 67.4 52.7 52.4 66.5 52.4 66.5 47.1"/><polygon class="cls-2" points="38.9 71.5 26.5 71.5 26.5 58.1 21.9 58.1 21.9 71.5 9.6 71.5 9.6 75.6 21.9 75.6 21.9 89 26.5 89 26.5 75.6 38.9 75.6 38.9 71.5"/><polygon class="cls-3" points="90.5 23.7 78.2 23.7 78.2 10.2 73.6 10.2 73.6 23.7 61.2 23.7 61.2 27.7 73.6 27.7 73.6 41.1 78.2 41.1 78.2 27.7 90.5 27.7 90.5 23.7"/><polygon class="cls-4" points="60.5 86.4 52.1 86.4 52.1 77 48.1 77 48.1 86.4 39.8 86.4 39.8 90 48.1 90 48.1 99.3 52.1 99.3 52.1 90 60.5 90 60.5 86.4"/><polygon class="cls-5" points="38.9 23.7 26.4 23.7 26.4 10.2 22 10.2 22 23.7 9.6 23.7 9.6 27.6 22 27.6 22 41.1 26.4 41.1 26.4 27.6 38.9 27.6 38.9 23.7"/><polygon class="cls-4" points="100 48 91.6 48 91.6 38.7 87.7 38.7 87.7 48 79.3 48 79.3 51.6 87.7 51.6 87.7 60.9 91.6 60.9 91.6 51.6 100 51.6 100 48"/><polygon class="cls-6" points="90.5 71.5 78.2 71.5 78.2 58.1 73.6 58.1 73.6 71.5 61.2 71.5 61.2 75.6 73.6 75.6 73.6 89 78.2 89 78.2 75.6 90.5 75.6 90.5 71.5"/><polygon class="cls-7" points="59.9 9.8 51.6 9.8 51.6 0.7 48.6 0.7 48.6 9.8 40.4 9.8 40.4 12.6 48.6 12.6 48.6 21.8 51.6 21.8 51.6 12.6 59.9 12.6 59.9 9.8"/><polygon class="cls-7" points="19.5 48.3 11.2 48.3 11.2 39.4 8.3 39.4 8.3 48.3 0 48.3 0 51.2 8.3 51.2 8.3 60.2 11.2 60.2 11.2 51.2 19.5 51.1 19.5 48.3"/></g></svg>